Coordinates
version=1
nRows=8
nColumns=40
inDegrees=yes

Units are S.I. units (second, meters, Newtons, ...)
Angles are in degrees.

endheader
time	pelvis_tilt	pelvis_list	pelvis_rotation	pelvis_tx	pelvis_ty	pelvis_tz	hip_flexion_r	hip_adduction_r	hip_rotation_r	knee_angle_r	knee_angle_r_beta	ankle_angle_r	subtalar_angle_r	mtp_angle_r	hip_flexion_l	hip_adduction_l	hip_rotation_l	knee_angle_l	knee_angle_l_beta	ankle_angle_l	subtalar_angle_l	mtp_angle_l	lumbar_extension	lumbar_bending	lumbar_rotation	arm_flex_r	arm_add_r	arm_rot_r	elbow_flex_r	pro_sup_r	wrist_flex_r	wrist_dev_r	arm_flex_l	arm_add_l	arm_rot_l	elbow_flex_l	pro_sup_l	wrist_flex_l	wrist_dev_l
     13.89500000	     -5.71042827	     -4.74118087	    -10.00078867	      0.99061805	      0.92667852	      0.46426039	     27.23324696	     -0.43544336	     -8.23738143	     21.41637401	     21.41637401	      5.57307151	      0.02057443	     -0.34619021	      8.58379059	     -4.20992617	     -9.42597561	     21.05821933	     21.05821933	     19.28269988	    -16.63020038	      6.26721035	    -10.93952544	      7.73697625	      2.27009795	    -12.17427000	    -10.88291176	    -16.71156091	     31.78228801	     46.32142919	      0.00000000	      0.00000000	     32.84572204	    -25.77820143	    -12.27758184	     78.40665085	     47.67327242	      0.00000000	      0.00000000
     13.91507143	     -5.73279801	     -4.62368225	    -10.43717463	      0.98978811	      0.92653990	      0.46750612	     26.29652416	     -0.08398683	     -8.91098570	     17.57434082	     17.57434082	      4.66136998	      3.38682903	      0.71759663	      7.65488979	     -4.21413438	    -10.08429987	     20.13074273	     20.13074273	     19.28483507	    -16.16408317	      5.83756241	    -10.82516380	      7.61859105	      2.27249064	    -11.88283018	    -10.88156924	    -16.61135740	     32.26587420	     46.29451297	      0.00000000	      0.00000000	     33.55811472	    -25.70205614	    -12.36055106	     79.04565998	     47.70268629	      0.00000000	      0.00000000
     13.93514286	     -5.72673992	     -4.42155280	    -10.78304905	      0.98936898	      0.92595568	      0.47075092	     25.55268037	      0.05127208	     -9.86682936	     14.75040405	     14.75040405	      3.93831181	      6.67011556	      1.75242388	      6.74357438	     -4.12085572	    -10.74424365	     19.28806168	     19.28806168	     19.28574637	    -15.62690711	      5.10030913	    -10.69865940	      7.43856472	      2.26403199	    -11.53960126	    -10.87040572	    -16.52343959	     32.90896997	     46.26208011	      0.00000000	      0.00000000	     34.12638399	    -25.47177108	    -12.53535717	     79.75944754	     47.73866599	      0.00000000	      0.00000000
     13.95521429	     -5.68869047	     -4.22588234	    -11.05414900	      0.98931610	      0.92515136	      0.47415303	     24.97406995	      0.12749884	    -10.80740182	     12.89506051	     12.89506051	      3.32743296	      9.31703851	      2.56814123	      5.81557330	     -4.03406499	    -11.35255182	     18.51101087	     18.51101087	     19.22138637	    -15.08256672	      4.06191521	    -10.54921327	      7.26687131	      2.24707822	    -11.13610810	    -10.90308314	    -16.42845456	     33.66049515	     46.22506988	      0.00000000	      0.00000000	     34.52438657	    -25.12242352	    -12.81974161	     80.47974596	     47.78222376	      0.00000000	      0.00000000
     13.97528571	     -5.68689974	     -4.06299010	    -11.25924225	      0.98961171	      0.92418264	      0.47771815	     24.54530949	      0.24800800	    -11.35190810	     11.78172448	     11.78172448	      2.74325112	     10.77731138	      2.79726040	      4.93316462	     -3.98412767	    -11.86991421	     17.78883930	     17.78883930	     19.23941870	    -14.55372036	      3.16597437	    -10.34663003	      7.19101525	      2.25816643	    -10.62125795	    -10.95665419	    -16.34520105	     34.24373522	     46.19748385	      0.00000000	      0.00000000	     34.75513644	    -24.71108839	    -13.06132652	     81.03754981	     47.81707582	      0.00000000	      0.00000000
     13.99535714	     -5.67565211	     -3.96097171	    -11.40718333	      0.99026179	      0.92301886	      0.48148601	     24.20993872	      0.40504299	    -11.65676892	     11.30338145	     11.30338145	      1.66753054	     11.32568810	      0.55864409	      4.00360064	     -4.01955366	    -12.42527776	     16.99637828	     16.99637828	     18.58539547	    -14.24401651	      0.53569311	    -10.14975334	      7.20170495	      2.06363407	    -10.04583861	    -11.10522292	    -15.99597718	     35.15978888	     46.13331820	      0.00000000	      0.00000000	     34.58410644	    -24.26545393	    -13.92353657	     81.93349520	     47.92370756	      0.00000000	      0.00000000
     14.01542857	     -5.60713559	     -3.89433968	    -11.47214813	      0.99128211	      0.92212376	      0.48542597	     23.82541553	      0.59239557	    -11.56676534	     11.22783909	     11.22783909	      0.65572700	     10.90508923	     -2.05055759	      3.04086231	     -4.07046507	    -12.82423412	     16.36365136	     16.36365136	     18.80160030	    -13.62681498	      0.07028339	     -9.99089501	      7.25946639	      2.08625477	     -9.23138803	    -11.28403685	    -15.85882058	     35.08560658	     46.12757847	      0.00000000	      0.00000000	     34.54680400	    -23.79895307	    -14.02766562	     82.27663429	     47.96507220	      0.00000000	      0.00000000
     14.03550000	     -5.59083077	     -3.95722950	    -11.44715901	      0.99250789	      0.92138664	      0.48946718	     23.66358484	      0.81681131	    -11.55580110	     11.87760977	     11.87760977	      0.65999163	     10.40294401	     -2.49580989	      2.16901374	     -4.25893249	    -12.94920816	     15.83614465	     15.83614465	     19.04655108	    -13.30502328	      0.08515306	     -9.78564239	      7.51519946	      2.13042646	     -8.51328359	    -11.51103024	    -15.88782720	     35.30271064	     46.12583856	      0.00000000	      0.00000000	     34.39798602	    -23.32318994	    -13.89191837	     82.34530970	     47.95839712	      0.00000000	      0.00000000
